<svg id="visual" viewBox="0 0 900 600" width="900" height="600" xmlns="http://www.w3.org/2000/svg" xmlns:xlink="http://www.w3.org/1999/xlink" version="1.1"><rect x="0" y="0" width="900" height="600" fill="#ec9693"></rect><path d="M0 308L21.5 297.2C43 286.3 86 264.7 128.8 261.2C171.7 257.7 214.3 272.3 257.2 284.3C300 296.3 343 305.7 385.8 296.8C428.7 288 471.3 261 514.2 248.8C557 236.7 600 239.3 642.8 237C685.7 234.7 728.3 227.3 771.2 237.7C814 248 857 276 878.5 290L900 304L900 601L878.5 601C857 601 814 601 771.2 601C728.3 601 685.7 601 642.8 601C600 601 557 601 514.2 601C471.3 601 428.7 601 385.8 601C343 601 300 601 257.2 601C214.3 601 171.7 601 128.8 601C86 601 43 601 21.5 601L0 601Z" fill="#dabecd"></path><path d="M0 367L21.5 360.5C43 354 86 341 128.8 336C171.7 331 214.3 334 257.2 339.3C300 344.7 343 352.3 385.8 347C428.7 341.7 471.3 323.3 514.2 321.7C557 320 600 335 642.8 337.5C685.7 340 728.3 330 771.2 325C814 320 857 320 878.5 320L900 320L900 601L878.5 601C857 601 814 601 771.2 601C728.3 601 685.7 601 642.8 601C600 601 557 601 514.2 601C471.3 601 428.7 601 385.8 601C343 601 300 601 257.2 601C214.3 601 171.7 601 128.8 601C86 601 43 601 21.5 601L0 601Z" fill="#caadc0"></path><path d="M0 344L21.5 345.8C43 347.7 86 351.3 128.8 363.3C171.7 375.3 214.3 395.7 257.2 400C300 404.3 343 392.7 385.8 394.3C428.7 396 471.3 411 514.2 420.2C557 429.3 600 432.7 642.8 423.8C685.7 415 728.3 394 771.2 382.8C814 371.7 857 370.3 878.5 369.7L900 369L900 601L878.5 601C857 601 814 601 771.2 601C728.3 601 685.7 601 642.8 601C600 601 557 601 514.2 601C471.3 601 428.7 601 385.8 601C343 601 300 601 257.2 601C214.3 601 171.7 601 128.8 601C86 601 43 601 21.5 601L0 601Z" fill="#b99db4"></path><path d="M0 467L21.5 466.7C43 466.3 86 465.7 128.8 469.8C171.7 474 214.3 483 257.2 479.3C300 475.7 343 459.3 385.8 447.7C428.7 436 471.3 429 514.2 426.2C557 423.3 600 424.7 642.8 438.3C685.7 452 728.3 478 771.2 478.8C814 479.7 857 455.3 878.5 443.2L900 431L900 601L878.5 601C857 601 814 601 771.2 601C728.3 601 685.7 601 642.8 601C600 601 557 601 514.2 601C471.3 601 428.7 601 385.8 601C343 601 300 601 257.2 601C214.3 601 171.7 601 128.8 601C86 601 43 601 21.5 601L0 601Z" fill="#a88da8"></path><path d="M0 492L21.5 500.5C43 509 86 526 128.8 530.2C171.7 534.3 214.3 525.7 257.2 520.3C300 515 343 513 385.8 516.3C428.7 519.7 471.3 528.3 514.2 526.2C557 524 600 511 642.8 502.8C685.7 494.7 728.3 491.3 771.2 501.5C814 511.7 857 535.3 878.5 547.2L900 559L900 601L878.5 601C857 601 814 601 771.2 601C728.3 601 685.7 601 642.8 601C600 601 557 601 514.2 601C471.3 601 428.7 601 385.8 601C343 601 300 601 257.2 601C214.3 601 171.7 601 128.8 601C86 601 43 601 21.5 601L0 601Z" fill="#967e9d"></path></svg>